<?xml version="1.0" standalone="no"?>
<!DOCTYPE svg PUBLIC "-//W3C//DTD SVG 20010904//EN"
 "http://www.w3.org/TR/2001/REC-SVG-20010904/DTD/svg10.dtd">
<svg version="1.0" xmlns="http://www.w3.org/2000/svg"
 width="56.000000pt" height="37.000000pt" viewBox="0 0 56.000000 37.000000"
 preserveAspectRatio="xMidYMid meet">
<metadata>
Created by potrace 1.15, written by Peter Selinger 2001-2017
</metadata>
<g transform="translate(0.000000,37.000000) scale(0.100000,-0.100000)"
fill="#000000" stroke="none">
<path d="M140 328 c0 -39 30 -128 95 -285 22 -52 54 -59 72 -16 6 16 32 78 57
138 l46 110 0 -137 0 -138 25 0 25 0 0 186 0 185 -36 -3 c-34 -3 -38 -7 -60
-61 -13 -33 -35 -93 -50 -135 -15 -43 -30 -80 -33 -85 -7 -7 -39 64 -90 202
-33 88 -51 102 -51 39z"/>
</g>
</svg>
